<svg xmlns="http://www.w3.org/2000/svg" width="1440" height="1000" viewBox="0 0 1440 1000" fill="none">
  <defs>
    <linearGradient id="base" x1="120" y1="0" x2="1300" y2="1000" gradientUnits="userSpaceOnUse">
      <stop stop-color="#171326"/><stop offset=".48" stop-color="#2B1830"/><stop offset="1" stop-color="#161321"/>
    </linearGradient>
    <radialGradient id="rose" cx="0" cy="0" r="1" gradientTransform="translate(1190 210) rotate(145) scale(620 440)" gradientUnits="userSpaceOnUse">
      <stop stop-color="#D26C91" stop-opacity=".3"/><stop offset="1" stop-color="#D26C91" stop-opacity="0"/>
    </radialGradient>
    <radialGradient id="amber" cx="0" cy="0" r="1" gradientTransform="translate(250 870) rotate(-35) scale(570 390)" gradientUnits="userSpaceOnUse">
      <stop stop-color="#D89465" stop-opacity=".22"/><stop offset="1" stop-color="#D89465" stop-opacity="0"/>
    </radialGradient>
    <pattern id="pattern" width="210" height="210" patternUnits="userSpaceOnUse">
      <g stroke="#FFD4DE" stroke-opacity=".045" stroke-width="1.5" fill="none">
        <path d="M28 65c25-25 52-25 77 0s52 25 77 0"/><path d="M45 150h52l-26-45z"/>
        <circle cx="155" cy="150" r="17"/><path d="M144 150h22M155 139v22"/>
      </g>
    </pattern>
    <filter id="blur"><feGaussianBlur stdDeviation="55"/></filter>
  </defs>
  <rect width="1440" height="1000" fill="url(#base)"/>
  <rect width="1440" height="1000" fill="url(#rose)" filter="url(#blur)"/>
  <rect width="1440" height="1000" fill="url(#amber)" filter="url(#blur)"/>
  <path d="M-100 340C240 170 410 430 720 290s540 110 850-80" stroke="#C579A7" stroke-opacity=".08" stroke-width="110" filter="url(#blur)"/>
  <rect width="1440" height="1000" fill="url(#pattern)"/>
  <rect width="1440" height="1000" fill="#08060D" fill-opacity=".08"/>
</svg>
