<svg xmlns="http://www.w3.org/2000/svg" width="1440" height="1000" viewBox="0 0 1440 1000" fill="none">
  <defs>
    <linearGradient id="base" x1="70" y1="0" x2="1370" y2="1000" gradientUnits="userSpaceOnUse">
      <stop stop-color="#0B0915"/><stop offset=".5" stop-color="#171126"/><stop offset="1" stop-color="#090913"/>
    </linearGradient>
    <radialGradient id="violet" cx="0" cy="0" r="1" gradientTransform="translate(410 360) scale(620 470)" gradientUnits="userSpaceOnUse">
      <stop stop-color="#825FCC" stop-opacity=".28"/><stop offset="1" stop-color="#825FCC" stop-opacity="0"/>
    </radialGradient>
    <radialGradient id="indigo" cx="0" cy="0" r="1" gradientTransform="translate(1120 680) scale(650 470)" gradientUnits="userSpaceOnUse">
      <stop stop-color="#485EC1" stop-opacity=".23"/><stop offset="1" stop-color="#485EC1" stop-opacity="0"/>
    </radialGradient>
    <pattern id="stars" width="190" height="190" patternUnits="userSpaceOnUse">
      <circle cx="31" cy="42" r="1" fill="#EEE8FF" fill-opacity=".16"/><circle cx="145" cy="85" r="1.2" fill="#EEE8FF" fill-opacity=".11"/><circle cx="86" cy="157" r=".8" fill="#EEE8FF" fill-opacity=".13"/>
      <path d="m160 155 3 7 7 3-7 3-3 7-3-7-7-3 7-3z" fill="#EEE8FF" fill-opacity=".045"/>
    </pattern>
    <filter id="blur"><feGaussianBlur stdDeviation="65"/></filter>
  </defs>
  <rect width="1440" height="1000" fill="url(#base)"/>
  <rect width="1440" height="1000" fill="url(#violet)" filter="url(#blur)"/>
  <rect width="1440" height="1000" fill="url(#indigo)" filter="url(#blur)"/>
  <path d="M-80 720C250 490 470 690 760 490s520-50 780-270" stroke="#A288E3" stroke-opacity=".065" stroke-width="130" filter="url(#blur)"/>
  <rect width="1440" height="1000" fill="url(#stars)"/>
  <rect width="1440" height="1000" fill="#030207" fill-opacity=".09"/>
</svg>
